<svg xmlns="http://www.w3.org/2000/svg" xmlns:xlink="http://www.w3.org/1999/xlink" height="106" width="106">
  <defs>
    <linearGradient id="d">
      <stop offset="0" stop-color="#fefefe"/>
      <stop offset="1" stop-color="#c5c5c5"/>
    </linearGradient>
    <linearGradient id="c">
      <stop offset="0" stop-color="gray"/>
      <stop offset="1" stop-color="#ececec"/>
    </linearGradient>
    <linearGradient id="e">
      <stop offset="0" stop-color="gray"/>
      <stop offset="1" stop-color="#d6d6d6"/>
    </linearGradient>
    <linearGradient id="b">
      <stop offset="0" stop-color="#fff"/>
      <stop offset="1" stop-color="#adadad"/>
    </linearGradient>
    <linearGradient id="a">
      <stop offset="0" stop-color="#00837c"/>
      <stop offset="1" stop-color="#00716b"/>
    </linearGradient>
    <linearGradient xlink:href="#c" id="g" x1="44.391" y1="92.039" x2="44.391" y2="14.664" gradientUnits="userSpaceOnUse"/>
    <linearGradient xlink:href="#d" id="i" gradientUnits="userSpaceOnUse" x1="40.668" y1="15.408" x2="40.668" y2="91.403"/>
    <linearGradient xlink:href="#e" id="h" x1="48.25" y1="38.813" x2="45.5" y2="70.813" gradientUnits="userSpaceOnUse"/>
    <linearGradient xlink:href="#a" id="f" gradientUnits="userSpaceOnUse" x1="52.775" y1="0" x2="52.775" y2="105.551" gradientTransform="matrix(.99174 0 0 .99174 .437 .437)"/>
  </defs>
  <path d="M52.992 105.556C23.969 105.556.437 82.023.437 52.995S23.969.435 52.992.435c29.034 0 52.566 23.532 52.566 52.56 0 29.028-23.532 52.562-52.566 52.562zM73.135 87.76V76.412a231.987 231.987 0 00-8.92-6.966 41.758 41.758 0 00.291-31.676 276.55 276.55 0 008.63-6.784V19.64a248.249 248.249 0 01-12.657 10.444c-4.01-6.018-9.503-10.955-15.99-14.24 4.642 4.85 8.357 11.033 10.802 18.06-12.102 8.417-26.54 15.492-39.452 19.761 14.496 5.263 26.901 10.992 39.182 19.674-2.438 6.726-6.054 12.64-10.532 17.318 6.262-3.172 11.603-7.884 15.57-13.62 5.947 4.512 10.937 8.787 13.076 10.758zM37.421 53.697c7.053-3.343 14.24-7.024 20.158-10.984.594 3.394.92 6.921.92 10.536 0 3.915-.377 7.72-1.074 11.366-6.222-4.237-13.593-8.357-20.004-10.918z" fill="url(#f)" fill-rule="evenodd"/>
  <path d="M44.39 14.664a.87.87 0 00-.6 1.47c4.442 4.643 8.015 10.557 10.442 17.264-12.01 8.264-26.243 15.236-38.976 19.446-.783.26-.8 1.362-.024 1.644 14.348 5.21 26.606 10.884 38.723 19.356-2.414 6.406-5.887 12.054-10.166 16.523-.675.707.148 1.82 1.022 1.38 6.162-3.122 11.42-7.722 15.439-13.274l12.5 10.283a.87.87 0 001.424-.672V76.607a.87.87 0 00-.319-.671 233.486 233.486 0 00-8.54-6.674c1.99-4.96 3.16-10.341 3.16-16.01 0-5.393-1.065-10.528-2.875-15.285a279.447 279.447 0 008.255-6.49.87.87 0 00.319-.674V19.36a.87.87 0 00-1.447-.652c-3.928 3.47-8.134 6.907-12.043 9.937-4.072-5.83-9.484-10.654-15.873-13.89a.87.87 0 00-.42-.092zm14.513 24.633c.686 4.463 1.114 9.045 1.114 13.752 0 5.15-.502 10.139-1.321 14.98-8.3-5.515-19.169-12.003-24.928-14.466 6.176-2.967 17.157-9.1 25.135-14.266z" fill="url(#g)" fill-rule="evenodd"/>
  <path d="M61.875 36L33.75 47.25l-.125 12.625 28.25 12.25V36zm-5.242 8.549c.416 2.84.76 5.718.76 8.703 0 3.284-.321 6.465-.823 9.562-5.312-3.504-11.15-6.727-16.664-9.132 5.847-2.821 11.62-5.865 16.727-9.133z" fill="url(#h)"/>
  <path d="M73.303 88.048V76.607a233.932 233.932 0 00-8.995-7.024 42.106 42.106 0 00.294-31.94 278.849 278.849 0 008.701-6.84V19.361a250.315 250.315 0 01-12.762 10.531c-4.043-6.068-9.582-11.046-16.123-14.359 4.681 4.891 8.427 11.126 10.892 18.211-12.203 8.488-26.761 15.621-39.78 19.926 14.616 5.307 27.125 11.083 39.508 19.837-2.458 6.782-6.105 12.746-10.62 17.462 6.314-3.198 11.7-7.949 15.699-13.733l13.186 10.848zM37.291 53.703c7.112-3.37 14.358-7.082 20.326-11.076.599 3.423.928 6.979.928 10.624 0 3.948-.38 7.784-1.083 11.461-6.274-4.272-13.706-8.427-20.171-11.009z" fill="url(#i)" fill-rule="evenodd"/>
</svg>
